<svg width="41" height="41" viewBox="0 0 41 41" fill="none" xmlns="http://www.w3.org/2000/svg">
<path fill-rule="evenodd" clip-rule="evenodd" d="M1.07191 0C0.479912 0 0 0.479913 0 1.07191V39.0607C0 39.6527 0.479913 40.1326 1.07191 40.1326H39.0607C39.6527 40.1326 40.1326 39.6527 40.1326 39.0607V1.07191C40.1326 0.479912 39.6527 0 39.0607 0H1.07191ZM4.43324 8.3678C4.43324 7.69087 4.58945 7.06601 4.84981 6.83169C5.16224 6.49322 5.91728 6.41511 8.88535 6.41511H8.8854C12.4523 6.41511 12.5043 6.41511 12.244 6.93583C11.9836 7.43051 11.8274 7.50862 10.9422 7.56069C10.6037 7.58672 10.5516 8.26365 10.4735 11.7785C10.4215 15.7099 10.4475 15.9963 10.9422 16.4389C11.3588 16.8034 11.6191 16.8555 12.0878 16.6732C12.4262 16.543 14.1446 14.7466 15.889 12.6897C18.2322 9.95598 19.3517 8.83644 20.1588 8.47194C22.5281 7.40447 24.3506 8.05537 26.824 10.8412C27.7613 11.9087 29.714 14.0957 31.198 15.7359C33.4111 18.2093 35.6762 21.4378 35.6762 22.1147C35.6762 22.9739 33.3329 21.1514 32.682 19.7715L32.2134 18.7821L31.8229 19.6934C31.172 21.2555 30.469 24.5881 29.714 29.4568L29.011 34.1432L28.308 34.2213L27.6051 34.2994V31.2272C27.6051 28.4414 27.527 27.8946 26.7199 25.4212C26.0169 23.3123 25.7045 22.6614 25.3139 22.6094C24.8713 22.5313 24.9234 22.7916 25.8346 25.4733L26.8761 28.4153L26.5636 30.8887C26.1991 34.013 26.121 34.2734 25.5222 34.2734C24.9494 34.2734 24.8192 33.7266 24.663 30.316C24.5589 28.5455 24.3246 27.426 23.5695 25.2911L22.5802 22.5573H20.4452H18.2843L18.4144 23.5206C18.4665 24.0674 18.7789 26.723 19.1174 29.4047L19.6902 34.2994L19.0653 34.2213C18.5186 34.1432 18.2843 33.6225 16.5659 28.4153C15.186 24.1975 14.5612 22.6614 14.2487 22.6094C13.702 22.5052 13.702 22.7135 14.1706 24.0413C14.5091 25.0307 14.483 25.2129 13.0511 29.613C11.6451 33.9089 11.515 34.1432 10.8641 34.2213C10.4735 34.2734 10.1611 34.2213 10.1611 34.0911C10.1611 33.4142 10.9422 23.8591 11.0724 23.2603C11.1765 22.6354 11.0984 22.5573 10.5256 22.5573C9.45814 22.5573 8.3386 21.8023 7.92203 20.8389C7.63564 20.136 7.55753 18.7561 7.55753 14.7986L7.6096 9.66959L6.02142 9.59148L4.43324 9.51337V8.3678Z" fill="white"/>
</svg>
